<?xml version="1.0" encoding="utf-8"?>
<!-- Generator: Adobe Illustrator 22.0.1, SVG Export Plug-In . SVG Version: 6.00 Build 0)  -->
<svg version="1.1" id="Слой_1" xmlns="http://www.w3.org/2000/svg" xmlns:xlink="http://www.w3.org/1999/xlink" x="0px" y="0px"
	 viewBox="0 0 2000 2000" style="enable-background:new 0 0 2000 2000;" xml:space="preserve">
<style type="text/css">
	.st0{fill:url(#SVGID_1_);}
	.st1{fill:url(#SVGID_2_);}
</style>
<image style="display:none;overflow:visible;" width="1500" height="1600" xlink:href="25CE1DAD.jpg"  transform="matrix(1.3331 0 0 1.3331 3 0)">
</image>
<linearGradient id="SVGID_1_" gradientUnits="userSpaceOnUse" x1="1115.1837" y1="1727" x2="1115.1837" y2="147">
	<stop  offset="0" style="stop-color:#00AA73"/>
	<stop  offset="1" style="stop-color:#000C55"/>
</linearGradient>
<path class="st0" d="M1225,147c0,0,64.6,52.1,88,94c65.1,13.6,124,80,124,80s26.7,19.3,83.3,23.4c5,24.5-0.9,90.7-31.9,134.6
	c-32.1,45.4-89.3,68-89.3,68s26,31.3,60,90c91,160,42,354,36.1,375c-27.8,97.6-48.1,91.3-100.1,191c-30.7,58.9-55.9,156.7-38,264
	c25.1,150.6,112,256,112,256l-150-50c0,0-190-253,16-562c-58,62-103,116.4-138,188c-87,177.8-86,348-86,348s-166.4-21.4-338,80
	c-101.4-227.4-68.4-491.4-2-624c106-211.7,118.2-217.1,295.2-361.1C1141.1,681,1083,562.1,1133,361C1159.1,256.1,1225,147,1225,147z
	"/>
<linearGradient id="SVGID_2_" gradientUnits="userSpaceOnUse" x1="553.8069" y1="1727" x2="553.8069" y2="334.1237">
	<stop  offset="0" style="stop-color:#009966"/>
	<stop  offset="1" style="stop-color:#000C55"/>
</linearGradient>
<path class="st1" d="M565.1,334.1c66,106.5,129,295.5,105,479.8c-24.3,187.1-75.6,269.8-73.5,426.1
	c3.6,269.5,169.5,486.9,169.5,486.9s-341.9-222.2-403.5-527.4c-31.5-156-32.9-290.9,31.6-448.4C492.8,510.5,604.1,488.6,565.1,334.1
	z"/>
</svg>
