<svg id="Layer_1" enable-background="new 0 0 512 512" height="512" viewBox="0 0 512 512" width="512" xmlns="http://www.w3.org/2000/svg" xmlns:xlink="http://www.w3.org/1999/xlink"><linearGradient id="SVGID_1_" gradientUnits="userSpaceOnUse" x1="256" x2="256" y1="0" y2="512"><stop offset="0" stop-color="#8df49b"/><stop offset="1" stop-color="#589cf9"/></linearGradient><path d="m452 512h-392c-33.084 0-60-26.916-60-60v-392c0-33.084 26.916-60 60-60h392c33.084 0 60 26.916 60 60v392c0 33.084-26.916 60-60 60zm-392-472c-11.028 0-20 8.972-20 20v392c0 11.028 8.972 20 20 20h392c11.028 0 20-8.972 20-20v-392c0-11.028-8.972-20-20-20zm196 361c-79.953 0-145-65.047-145-145s65.047-145 145-145 145 65.047 145 145-65.047 145-145 145zm0-250c-57.897 0-105 47.103-105 105s47.103 105 105 105 105-47.103 105-105-47.103-105-105-105zm156-71c-11.046 0-20 8.954-20 20 0 11.046 8.954 20 20 20 11.046 0 20-8.954 20-20 0-11.046-8.954-20-20-20z" fill="url(#SVGID_1_)"/></svg>