<svg id="Layer_1" enable-background="new 0 0 512.172 512.172" height="512" viewBox="0 0 512.172 512.172" width="512" xmlns="http://www.w3.org/2000/svg" xmlns:xlink="http://www.w3.org/1999/xlink"><linearGradient id="SVGID_1_" gradientUnits="userSpaceOnUse" x1="256.086" x2="256.086" y1=".086" y2="512.086"><stop offset="0" stop-color="#8df49b"/><stop offset="1" stop-color="#589cf9"/></linearGradient><path d="m256.172 512.086h-256.172l40.977-117.299c-26.73-41.355-40.805-89.084-40.805-138.701 0-68.38 26.629-132.667 74.98-181.02 48.352-48.352 112.64-74.98 181.02-74.98s132.667 26.629 181.02 74.98c48.352 48.353 74.98 112.64 74.98 181.02s-26.629 132.667-74.98 181.02c-48.353 48.351-112.64 74.98-181.02 74.98zm-199.828-40h199.828c119.103 0 216-96.897 216-216s-96.897-216-216-216-216 96.897-216 216c0 44.817 13.604 87.801 39.339 124.304l5.928 8.408zm238.022-68.001c-.675 0-1.347-.003-2.028-.009-41.013-.362-82.389-21.127-122.978-61.716-40.232-40.233-60.815-81.428-61.177-122.438-.231-26.063 2.805-64.056 31.709-92.961 12.053-12.053 27.23-18.756 42.735-18.873l.434-.002h.11c19.109 0 36.871 10.454 46.336 27.306l9.268 16.582c4.371 9.107 17.643 36.755-3.771 58.495l-9.005 9.553c4.289 10.448 12.688 27.219 26.671 41.229 13.54 13.513 29.496 21.544 39.781 25.726l9.112-9.674c22.714-22.67 50.229-8.409 59.271-3.723l.592.319 15.442 8.674c16.881 9.483 27.343 27.297 27.304 46.488l-.002.448c-.116 15.447-6.818 30.625-18.872 42.68-21.452 21.453-51.216 31.896-90.932 31.896zm-111.457-255.998c-2.866.026-8.57.995-14.733 7.158-13.907 13.907-20.261 34.347-19.996 64.323.267 30.154 16.908 61.951 49.463 94.508 22.627 22.627 57.484 49.67 95.047 50.002 29.871.282 50.296-6.146 64.322-20.173 6.178-6.178 7.136-11.896 7.158-14.753l.001-.236c.009-4.655-2.632-9.074-6.895-11.468l-15.134-8.502c-7.93-4.076-10.844-4.155-11.382-4.128-.119.074-.379.256-.775.634l-25.288 26.888-11.388-2.854c-1.575-.395-38.932-10.016-68.924-39.951-29.84-29.897-40.196-67.588-40.623-69.178l-2.89-10.778 25.593-27.139c.233-.233.356-.393.413-.472.08-.559.19-3.479-3.9-12.13l-8.346-14.857c-2.39-4.255-6.795-6.895-11.502-6.895-.009 0-.018 0-.027 0z" fill="url(#SVGID_1_)"/></svg>